<?xml version="1.0" standalone="no"?>
<!DOCTYPE svg PUBLIC "-//W3C//DTD SVG 20010904//EN"
 "http://www.w3.org/TR/2001/REC-SVG-20010904/DTD/svg10.dtd">
<svg version="1.0" xmlns="http://www.w3.org/2000/svg"
 width="512.000000pt" height="512.000000pt" viewBox="0 0 512.000000 512.000000"
 preserveAspectRatio="xMidYMid meet">
<metadata>
Created by potrace 1.14, written by Peter Selinger 2001-2017
</metadata>
<g transform="translate(0.000000,512.000000) scale(0.100000,-0.100000)"
fill="#000000" stroke="none">
<path d="M1795 4983 c-33 -9 -65 -35 -80 -63 -13 -25 -104 -267 -142 -375 -7
-22 -17 -49 -22 -60 -5 -11 -50 -132 -101 -270 -50 -137 -113 -308 -140 -380
-26 -71 -119 -321 -205 -555 -86 -234 -173 -468 -192 -520 -20 -52 -50 -135
-68 -185 -39 -107 -144 -392 -250 -675 -42 -113 -80 -216 -85 -230 -8 -25
-220 -595 -267 -720 -13 -36 -28 -76 -32 -90 -5 -14 -24 -68 -44 -120 -181
-484 -179 -477 -147 -542 17 -36 89 -71 130 -64 38 5 75 29 94 59 13 19 86
213 221 582 18 50 92 250 165 445 72 195 161 436 197 535 36 99 69 183 72 188
4 4 36 -19 70 -50 91 -84 221 -175 341 -237 142 -73 232 -101 390 -121 138
-18 481 -8 720 20 19 3 67 7 105 11 39 3 81 7 95 10 102 16 433 24 545 12 321
-35 544 -187 726 -497 24 -41 58 -82 74 -92 61 -38 147 -15 182 49 12 20 41
93 66 162 25 69 67 181 92 250 68 184 133 359 219 595 42 116 83 226 91 245
23 56 444 1196 476 1290 18 52 28 98 25 118 -9 72 -151 279 -275 403 -198 196
-391 282 -726 324 -57 7 -327 8 -395 1 -25 -3 -76 -7 -115 -11 -38 -3 -86 -8
-105 -10 -19 -2 -66 -6 -105 -10 -38 -3 -86 -8 -105 -10 -139 -16 -209 -19
-390 -19 -113 0 -227 4 -255 8 -55 8 -189 43 -214 56 -9 5 -44 22 -79 40 -73
36 -84 44 -175 130 -76 72 -143 159 -205 266 -23 39 -53 79 -68 89 -29 19 -76
27 -109 18z m183 -556 c171 -174 405 -282 682 -315 107 -13 521 -5 605 12 11
2 60 7 109 11 50 4 97 8 105 10 9 2 54 6 101 10 47 3 101 8 120 10 60 7 363 8
415 1 131 -16 225 -42 318 -87 132 -63 266 -185 357 -326 l49 -74 -18 -52
c-10 -29 -64 -176 -121 -327 -56 -151 -124 -336 -151 -410 -28 -74 -59 -157
-69 -185 -56 -145 -453 -1225 -461 -1252 -6 -18 -12 -33 -15 -33 -3 0 -46 42
-97 94 -187 192 -373 286 -660 333 -139 23 -433 22 -632 -2 -16 -2 -61 -7
-100 -11 -38 -3 -81 -7 -95 -9 -14 -2 -61 -6 -105 -10 -44 -4 -96 -9 -115 -11
-74 -9 -398 -11 -458 -3 -152 21 -188 31 -283 79 -167 84 -336 215 -415 322
l-34 46 76 209 c41 114 80 217 85 228 5 11 37 99 72 195 99 271 477 1293 486
1315 7 16 42 112 123 335 l10 25 25 -30 c13 -16 55 -61 91 -98z"/>
<path d="M3600 3963 c-23 -4 -31 -18 -74 -136 -48 -131 -88 -237 -108 -289
-12 -33 -18 -35 -128 -43 -81 -6 -109 -8 -210 -19 -25 -3 -83 -8 -130 -12 -47
-3 -92 -8 -100 -9 -8 -2 -18 -4 -21 -4 -3 -1 -46 -109 -95 -242 -75 -204 -93
-242 -113 -250 -25 -10 -395 -5 -487 7 l-52 6 -26 -69 c-14 -37 -55 -147 -90
-243 -71 -192 -63 -184 -146 -161 -110 29 -245 98 -349 178 -51 39 -49 41 -86
-67 -15 -41 -31 -84 -36 -95 -18 -41 -89 -240 -89 -252 0 -20 122 -103 225
-153 128 -62 255 -97 255 -69 0 6 11 38 24 72 13 34 49 130 79 212 l55 150 39
-3 c21 -1 72 -6 113 -10 63 -7 226 -9 371 -3 l36 1 87 238 c48 130 89 243 91
250 3 6 21 12 42 13 21 0 47 2 58 3 11 2 56 6 100 10 44 4 96 8 115 11 19 2
67 7 105 10 39 3 91 8 118 11 26 2 47 2 47 0 0 -3 -39 -110 -86 -238 -47 -128
-86 -237 -87 -241 -1 -4 99 -9 223 -11 236 -4 320 -11 320 -30 0 -6 -36 -108
-79 -226 -43 -118 -78 -216 -76 -218 1 -2 36 -12 76 -24 101 -28 220 -86 313
-152 42 -31 79 -56 80 -56 2 0 25 57 51 128 26 70 62 168 81 217 19 50 34 95
34 100 0 13 -73 68 -155 117 -73 44 -159 80 -245 104 -36 9 -66 18 -67 19 -3
2 33 109 47 140 4 11 22 58 39 105 42 119 89 241 94 246 7 7 135 -30 197 -57
73 -31 164 -84 224 -131 26 -21 52 -36 56 -33 5 3 12 20 15 38 4 17 11 37 14
42 4 6 18 39 30 75 12 36 26 74 31 85 4 11 17 46 29 78 12 31 31 82 43 113
l21 56 -24 19 c-61 49 -164 112 -226 141 -89 41 -221 79 -229 66 -4 -6 -46
-117 -94 -247 l-88 -236 -33 3 c-165 14 -254 18 -376 16 -79 -1 -143 1 -143 6
0 8 65 188 81 225 5 11 27 72 50 135 23 63 45 119 49 123 7 8 352 11 405 3 17
-3 58 -8 91 -11 l62 -7 12 39 c7 21 44 121 81 222 38 101 67 187 64 189 -20
20 -425 39 -525 25z"/>
<path d="M2442 3921 c-6 -3 -23 -38 -37 -76 -14 -39 -30 -79 -34 -90 -5 -11
-24 -60 -42 -110 -46 -129 -53 -149 -62 -162 -20 -32 -275 73 -402 166 -38 28
-72 51 -75 51 -4 0 -13 -21 -22 -47 -9 -27 -49 -137 -89 -247 l-73 -198 25
-19 c99 -78 227 -148 329 -179 36 -11 78 -25 93 -30 33 -10 19 -40 129 263
l83 228 40 -5 c22 -3 65 -9 95 -12 71 -8 406 -8 419 1 6 3 15 20 20 38 5 18
29 82 52 142 30 79 99 267 99 270 0 0 -82 0 -182 0 -172 0 -330 9 -347 19 -4
3 -12 1 -19 -3z"/>
<path d="M2927 2504 c-2 -2 -39 -6 -82 -9 -114 -8 -228 -19 -334 -31 -47 -5
-71 -18 -71 -39 0 -7 -31 -96 -69 -197 -73 -192 -82 -224 -66 -221 6 0 41 4
78 7 37 3 94 8 125 11 124 12 150 14 227 20 99 8 126 12 136 22 4 4 40 96 79
203 39 107 75 205 80 218 10 23 9 23 -45 21 -30 -1 -56 -4 -58 -5z"/>
</g>
</svg>
